<?xml version="1.0" encoding="UTF-8" standalone="no"?>
<svg
   xmlns:dc="http://purl.org/dc/elements/1.1/"
   xmlns:cc="http://creativecommons.org/ns#"
   xmlns:rdf="http://www.w3.org/1999/02/22-rdf-syntax-ns#"
   xmlns:svg="http://www.w3.org/2000/svg"
   xmlns="http://www.w3.org/2000/svg"
   id="svg8"
   version="1.1"
   viewBox="0 0 120 120"
   height="120mm"
   width="120mm">
  <defs
     id="defs2" />
  <metadata
     id="metadata5">
    <rdf:RDF>
      <cc:Work
         rdf:about="">
        <dc:format>image/svg+xml</dc:format>
        <dc:type
           rdf:resource="http://purl.org/dc/dcmitype/StillImage" />
        <dc:title></dc:title>
      </cc:Work>
    </rdf:RDF>
  </metadata>
  <g
     transform="translate(-109.00996,-83.831168)"
     id="layer1">
    <g
       transform="matrix(0.26458333,0,0,0.26458333,-38.931547,170.41338)"
       id="g840"
       style="fill:none;stroke:#000000">
      <g
         transform="matrix(7.1405029,0,0,7.1405029,269.41652,64.842981)"
         id="g907">
        <g
           id="Layer_2" />
        <g
           id="Layer_1">
          <g
             id="Layer_2_2_" />
          <g
             transform="translate(0.80026378,-2.6408705)"
             id="g918">
            <g
               style="fill:none;fill-opacity:1;stroke:#000100;stroke-width:19.62333488;stroke-miterlimit:4;stroke-dasharray:none;stroke-opacity:1"
               transform="matrix(0.06248583,0,0,0.06248583,40.503235,-51.537222)"
               id="g998">
              <g
                 style="fill:none;fill-opacity:1;stroke:#000100;stroke-width:19.62333488;stroke-miterlimit:4;stroke-dasharray:none;stroke-opacity:1"
                 id="g966">
                <g
                   style="fill:none;fill-opacity:1;stroke:#000100;stroke-width:19.62333488;stroke-miterlimit:4;stroke-dasharray:none;stroke-opacity:1"
                   id="g964">
                  <path
                     style="fill:#f2f2f2;fill-opacity:1;stroke:#000000;stroke-width:8.47085366;stroke-miterlimit:4;stroke-dasharray:none;stroke-opacity:1"
                     d="m 403.8,172.6 c -3.8,43.4 10.7,86.3 41,122.5 50.3,-43.2 100.9,-77 148.6,-103 -62.2,-18.3 -127.1,-24.5 -189.1,-23.7 -0.1,1.4 -0.4,2.8 -0.5,4.2 z"
                     id="path922" />
                  <path
                     style="fill:#f2f2f2;fill-opacity:1;stroke:#000000;stroke-width:8.47085366;stroke-miterlimit:4;stroke-dasharray:none;stroke-opacity:1"
                     d="m 183.6,123.2 c -5.9,4.4 -11.7,8.9 -17.3,13.5 -9,8.4 -17.9,17 -26.2,26.1 10.8,-3 22.8,-6 35.3,-9.1 2.2,-10.3 4.9,-20.5 8.2,-30.5 z"
                     id="path924" />
                  <path
                     style="fill:#f2f2f2;fill-opacity:1;stroke:#000000;stroke-width:8.47085366;stroke-miterlimit:4;stroke-dasharray:none;stroke-opacity:1"
                     d="m 672.4,377.6 c -8.7,-62 -21,-114.7 -35.6,-158.5 -50.9,25.6 -106.2,60 -160.6,106.4 37.7,29.9 85.5,48.7 137.6,53.3 20.1,1.8 39.8,1.2 58.6,-1.2 z"
                     id="path926" />
                  <path
                     style="fill:#f2f2f2;fill-opacity:1;stroke:#000000;stroke-width:8.47085366;stroke-miterlimit:4;stroke-dasharray:none;stroke-opacity:1"
                     d="M 521,25.4 C 472.6,45.9 435,80.8 416.3,124 479.7,124.3 545.9,131.8 610,151.3 579,85 544.9,46.5 521,25.4 Z"
                     id="path928" />
                  <path
                     style="fill:#f2f2f2;fill-opacity:1;stroke:#000000;stroke-width:8.47085366;stroke-miterlimit:4;stroke-dasharray:none;stroke-opacity:1"
                     d="m 223.7,143.2 c 43.5,-8.5 93.1,-15.5 145.8,-18.1 C 382.9,83.7 409.3,47.7 445,20 374.5,29.6 308.7,50.3 250.9,80.7 c -11.4,19.7 -20.6,40.6 -27.2,62.5 z"
                     id="path930" />
                  <path
                     style="fill:#f2f2f2;fill-opacity:1;stroke:#000000;stroke-width:8.47085366;stroke-miterlimit:4;stroke-dasharray:none;stroke-opacity:1"
                     d="m 684.1,949.9 c -2.7,0.5 -5.4,0.8 -8.1,1.3 -0.3,0.8 -0.5,1.8 -0.8,2.6 3,-1.2 5.9,-2.6 8.9,-3.9 z"
                     id="path932" />
                  <path
                     style="fill:#1f853e;fill-opacity:1;stroke:#000000;stroke-width:8.47085366;stroke-miterlimit:4;stroke-dasharray:none;stroke-opacity:1"
                     d="M 631.6,617.1 C 615.9,617.1 600,616.4 584.2,615 480.1,605.8 383.9,567.3 309,505.5 c -29.5,38.1 -56.5,76.2 -80.8,112.2 89.6,71.6 203.5,116.5 327.1,127.4 19.2,1.7 38.6,2.5 57.8,2.5 20.7,0 41,-1.2 61,-3.1 5.1,-39.5 8.9,-83.1 10.5,-130.3 -17.4,1.9 -35,2.9 -53,2.9 z"
                     id="path934" />
                  <path
                     style="fill:#f2f2f2;fill-opacity:1;stroke:#000000;stroke-width:8.47085366;stroke-miterlimit:4;stroke-dasharray:none;stroke-opacity:1"
                     d="m 89.8,758.5 c -4.5,-5 -8.7,-10 -13,-15 3.6,6.2 7.1,12.4 11,18.4 0.7,-1.1 1.4,-2.4 2,-3.4 z"
                     id="path936" />
                  <path
                     style="fill:#f2f2f2;fill-opacity:1;stroke:#000000;stroke-width:8.47085366;stroke-miterlimit:4;stroke-dasharray:none;stroke-opacity:1"
                     d="m 212.3,199.4 c -7.7,87 25.1,172.5 91.9,241.8 33.7,-40.9 69.9,-80.7 108,-116.8 -38.2,-45 -56.7,-99 -52.2,-154.3 -53.6,3.4 -103.6,11.5 -146.4,20.6 -0.3,2.9 -1.1,5.7 -1.3,8.7 z"
                     id="path938" />
                  <path
                     style="fill:#f2f2f2;fill-opacity:1;stroke:#000000;stroke-width:8.47085366;stroke-miterlimit:4;stroke-dasharray:none;stroke-opacity:1"
                     d="M 170.3,625.3 C 164.6,620.1 158.6,615.2 153.1,609.7 86.6,543.2 42.3,465.7 22.3,383.4 15.4,412.6 11.4,442.8 10,473.7 c 5.3,87.4 40.7,171.8 102.9,244.5 15.5,-26.4 34.8,-58.1 57.4,-92.9 z"
                     id="path940" />
                  <path
                     style="fill:#be2128;fill-opacity:1;stroke:#000000;stroke-width:8.47085366;stroke-miterlimit:4;stroke-dasharray:none;stroke-opacity:1"
                     d="m 54.6,290.2 c 2.1,104.6 46.8,205.8 129.5,288.4 3.4,3.4 7.2,6.4 10.7,9.7 24.4,-36.1 51.9,-74.4 81.7,-112.6 -77.1,-77.7 -115.2,-175 -108.1,-274.6 -34.2,8.7 -60.7,17.2 -76.6,22.5 -14,21.1 -26.4,43.4 -37.2,66.6 z"
                     id="path942" />
                  <path
                     style="fill:#f2f2f2;fill-opacity:1;stroke:#000000;stroke-width:8.47085366;stroke-miterlimit:4;stroke-dasharray:none;stroke-opacity:1"
                     d="m 499.6,986.3 c 42.7,0 84.1,-5.5 123.6,-15.8 1.3,-3.5 2.8,-8.1 4.5,-13.3 -19.5,1.7 -39.3,2.6 -59.4,2.6 -20.4,0 -41.1,-0.9 -61.6,-2.7 C 358.3,944 222.9,884.8 122.2,790.6 c -2.2,4 -4.3,7.8 -5.9,10.8 90,112.5 228.3,184.9 383.3,184.9 z"
                     id="path944" />
                  <path
                     style="fill:#f2f2f2;fill-opacity:1;stroke:#000000;stroke-width:8.47085366;stroke-miterlimit:4;stroke-dasharray:none;stroke-opacity:1"
                     d="m 976,404.9 c 1.4,-2.1 2.6,-4.3 3.9,-6.4 -13.6,-67.5 -41,-130.1 -79.4,-184.5 -0.1,0.8 0,1.6 -0.1,2.5 -2.7,30.1 -12,58.2 -26.6,83.6 43.7,37.2 77.3,73.8 102.2,104.8 z"
                     id="path946" />
                  <path
                     style="fill:#f2f2f2;fill-opacity:1;stroke:#000000;stroke-width:8.47085366;stroke-miterlimit:4;stroke-dasharray:none;stroke-opacity:1"
                     d="M 813.5,308.1 C 777.1,280.2 734.7,253 686,229.1 c 12,40.3 22.1,86.7 29.6,139.3 39.3,-12 73.1,-33 97.9,-60.3 z"
                     id="path948" />
                  <path
                     style="fill:#064f8c;fill-opacity:1;stroke:#000000;stroke-width:8.47085366;stroke-miterlimit:4;stroke-dasharray:none;stroke-opacity:1"
                     d="m 990,501.4 c -2.7,-4.7 -8,-13.4 -15.6,-24.7 -60.5,65.5 -146.3,112.5 -245.5,131.3 -1.3,47.1 -4.6,91 -9.4,130.8 96.5,-16.2 182.6,-54.6 251.4,-108.3 11.7,-41.2 18.6,-84.4 19.1,-129.1 z"
                     id="path950" />
                  <path
                     style="fill:#f2f2f2;fill-opacity:1;stroke:#000000;stroke-width:8.47085366;stroke-miterlimit:4;stroke-dasharray:none;stroke-opacity:1"
                     d="m 944.1,702.1 c -67.3,40.7 -145.5,69.4 -230.8,82 -7.3,47.4 -16,87.7 -24.3,120.3 50.1,-9.7 97.3,-25.5 140.6,-46.1 47.8,-43.7 86.8,-96.7 114.5,-156.2 z"
                     id="path952" />
                  <path
                     style="fill:#f2f2f2;fill-opacity:1;stroke:#000000;stroke-width:8.47085366;stroke-miterlimit:4;stroke-dasharray:none;stroke-opacity:1"
                     d="m 846.2,149 c -21.1,3.2 -74.2,13.5 -142,40.1 51.6,25.1 96.4,53.6 134.8,82.8 9.6,-18.3 15.9,-38.2 17.8,-59.4 1.8,-20.3 -0.5,-40.1 -6.3,-59 -1.5,-1.4 -2.9,-3 -4.3,-4.5 z"
                     id="path954" />
                  <path
                     style="fill:#f2f2f2;fill-opacity:1;stroke:#000000;stroke-width:8.47085366;stroke-miterlimit:4;stroke-dasharray:none;stroke-opacity:1"
                     d="m 677.8,421 c -12.9,1.6 -26,2.7 -39.5,2.7 -9.4,0 -18.8,-0.4 -28.4,-1.2 -63.2,-5.6 -121.4,-29.3 -166.7,-67.2 -37.5,35.5 -73.5,75 -107,115.9 68.2,56.4 156.2,91.7 251.7,100.1 14.4,1.3 29.1,1.9 43.5,1.9 18.3,0 36.2,-1.2 53.8,-3.1 0.3,-46.8 -2,-96.7 -7.4,-149.1 z"
                     id="path956" />
                  <path
                     style="fill:#f2f2f2;fill-opacity:1;stroke:#000000;stroke-width:8.47085366;stroke-miterlimit:4;stroke-dasharray:none;stroke-opacity:1"
                     d="m 721,412.5 c 5.7,53 8.1,103.3 8.4,150.8 C 818.8,544.7 895.6,501 948.4,441.1 924.9,411.2 891.7,374 847.7,336 815.9,371.6 772,398.3 721,412.5 Z"
                     id="path958" />
                  <path
                     style="fill:#f2f2f2;fill-opacity:1;stroke:#000000;stroke-width:8.47085366;stroke-miterlimit:4;stroke-dasharray:none;stroke-opacity:1"
                     d="m 667.5,789.2 c -17.9,1.4 -36.1,2.3 -54.4,2.3 -20.4,0 -41.1,-0.9 -61.6,-2.7 C 420.7,777.3 300,729.9 204.2,654.4 c -24,37.1 -44.3,70.7 -59.7,97.2 94.2,91.8 223.8,149.3 366.2,161.9 19.2,1.7 38.7,2.5 57.8,2.5 24.8,0 49.1,-1.6 73,-4.4 8.4,-31.4 17.9,-72.6 26,-122.4 z"
                     id="path960" />
                  <path
                     style="fill:#f2f2f2;fill-opacity:1;stroke:#000000;stroke-width:8.47085366;stroke-miterlimit:4;stroke-dasharray:none;stroke-opacity:1"
                     d="m 588,13.7 c 3.7,1.2 7.3,2.6 11,3.8 -3.1,-0.3 -6.1,-0.9 -9.2,-1.2 -5.6,-0.5 -11.3,-0.8 -16.9,-1.1 27.8,30.1 60.2,75.7 88.3,143.8 58.7,-25.4 109.1,-39.5 143.4,-46.9 C 742.8,62.9 668.8,28.5 588,13.7 Z"
                     id="path962" />
                </g>
              </g>
              <g
                 style="fill:none;fill-opacity:1;stroke:#000100;stroke-width:19.62333488;stroke-miterlimit:4;stroke-dasharray:none;stroke-opacity:1"
                 id="g968" />
              <g
                 style="fill:none;fill-opacity:1;stroke:#000100;stroke-width:19.62333488;stroke-miterlimit:4;stroke-dasharray:none;stroke-opacity:1"
                 id="g970" />
              <g
                 style="fill:none;fill-opacity:1;stroke:#000100;stroke-width:19.62333488;stroke-miterlimit:4;stroke-dasharray:none;stroke-opacity:1"
                 id="g972" />
              <g
                 style="fill:none;fill-opacity:1;stroke:#000100;stroke-width:19.62333488;stroke-miterlimit:4;stroke-dasharray:none;stroke-opacity:1"
                 id="g974" />
              <g
                 style="fill:none;fill-opacity:1;stroke:#000100;stroke-width:19.62333488;stroke-miterlimit:4;stroke-dasharray:none;stroke-opacity:1"
                 id="g976" />
              <g
                 style="fill:none;fill-opacity:1;stroke:#000100;stroke-width:19.62333488;stroke-miterlimit:4;stroke-dasharray:none;stroke-opacity:1"
                 id="g978" />
              <g
                 style="fill:none;fill-opacity:1;stroke:#000100;stroke-width:19.62333488;stroke-miterlimit:4;stroke-dasharray:none;stroke-opacity:1"
                 id="g980" />
              <g
                 style="fill:none;fill-opacity:1;stroke:#000100;stroke-width:19.62333488;stroke-miterlimit:4;stroke-dasharray:none;stroke-opacity:1"
                 id="g982" />
              <g
                 style="fill:none;fill-opacity:1;stroke:#000100;stroke-width:19.62333488;stroke-miterlimit:4;stroke-dasharray:none;stroke-opacity:1"
                 id="g984" />
              <g
                 style="fill:none;fill-opacity:1;stroke:#000100;stroke-width:19.62333488;stroke-miterlimit:4;stroke-dasharray:none;stroke-opacity:1"
                 id="g986" />
              <g
                 style="fill:none;fill-opacity:1;stroke:#000100;stroke-width:19.62333488;stroke-miterlimit:4;stroke-dasharray:none;stroke-opacity:1"
                 id="g988" />
              <g
                 style="fill:none;fill-opacity:1;stroke:#000100;stroke-width:19.62333488;stroke-miterlimit:4;stroke-dasharray:none;stroke-opacity:1"
                 id="g990" />
              <g
                 style="fill:none;fill-opacity:1;stroke:#000100;stroke-width:19.62333488;stroke-miterlimit:4;stroke-dasharray:none;stroke-opacity:1"
                 id="g992" />
              <g
                 style="fill:none;fill-opacity:1;stroke:#000100;stroke-width:19.62333488;stroke-miterlimit:4;stroke-dasharray:none;stroke-opacity:1"
                 id="g994" />
              <g
                 style="fill:none;fill-opacity:1;stroke:#000100;stroke-width:19.62333488;stroke-miterlimit:4;stroke-dasharray:none;stroke-opacity:1"
                 id="g996" />
            </g>
          </g>
        </g>
      </g>
    </g>
  </g>
  <style
     type="text/css"
     id="style842"> .st0{fill:#064F8C;} .st1{fill:#249847;} .st2{fill:#BE2128;} .st3{fill:#172C36;} .st4{fill:#CDCDCE;} </style>
</svg>
